# xmcd CD database file
#
# Track frame offsets:
#	150
#	23840
#	43022
#	61655
#	80625
#	91915
#	108200
#	123737
#	147415
#	168412
#	184387
#	208720
#	225055
#	239307
#	256647
#	279650
#	296280
#	316100
#
# Disc length: 4473 seconds
#
# Revision: 2
# Processed by: cddbd v1.5.1PL0 Copyright (c) Steve Scherf et al.
# Submitted via: CDex 1.51
#
DISCID=f0117712
DTITLE=Various Artist - Living The Blues - Blues Classics: The '80s
DYEAR=1998
DGENRE=Blues
TTITLE0=Z. Z. Hill - Down Home Blues
TTITLE1=Little Milton - The Blues Is Alright
TTITLE2=Bobby "Blue" Bland - Members Only
TTITLE3=B. B. King - Into The Night
TTITLE4=Clarence "Gatemouth" Brown - I Feel Alright Again
TTITLE5=Johnnie Taylor - Still Called The Blues
TTITLE6=Johnny Copeland - Make My Home Where I Hang My Hat
TTITLE7=Denise LaSalle - Someone Else Is Steppin' In
TTITLE8=Joe Louis Walker - The Gift
TTITLE9=Rockin' Sidney - My Toot Toot
TTITLE10=Ruth Brown - If I Can't Sell It, I'll Keep Sittin' On It
TTITLE11=Z. Z. Hill - Cheatin' In The Next Room
TTITLE12=Albert Collins - Ice Pick
TTITLE13=Koko Taylor - I Can Love You Like A Woman
TTITLE14=Johnny Adams - Room With A View
TTITLE15=Anson Funderburgh - A Man Needs His Lovin'
TTITLE16=John Lee Hooker - That's Alright
TTITLE17=Lynn White - Blues In My Bedroom
EXTD=YEAR: 1998
EXTT0=
EXTT1=
EXTT2=
EXTT3=
EXTT4=
EXTT5=
EXTT6=
EXTT7=
EXTT8=
EXTT9=
EXTT10=
EXTT11=
EXTT12=
EXTT13=
EXTT14=
EXTT15=
EXTT16=
EXTT17=
PLAYORDER=
